<mxfile host="65bd71144e">
    <diagram id="ZmwSE_Rod1DrpZtbTb76" name="ページ1">
        <mxGraphModel dx="732" dy="1167" grid="1" gridSize="10" guides="1" tooltips="1" connect="1" arrows="1" fold="1" page="1" pageScale="1" pageWidth="827" pageHeight="1169" math="0" shadow="0">
            <root>
                <mxCell id="0"/>
                <mxCell id="1" parent="0"/>
                <mxCell id="3" value="リバーシ&lt;br&gt;アプリケーション" style="ellipse;whiteSpace=wrap;html=1;" parent="1" vertex="1">
                    <mxGeometry x="370" y="445" width="140" height="70" as="geometry"/>
                </mxCell>
                <mxCell id="4" value="プレイヤー" style="shape=umlActor;verticalLabelPosition=bottom;verticalAlign=top;html=1;" parent="1" vertex="1">
                    <mxGeometry x="180" y="450" width="30" height="60" as="geometry"/>
                </mxCell>
                <mxCell id="14" value="" style="endArrow=none;html=1;edgeStyle=orthogonalEdgeStyle;" parent="1" edge="1">
                    <mxGeometry relative="1" as="geometry">
                        <mxPoint x="210" y="479.5" as="sourcePoint"/>
                        <mxPoint x="370" y="479.5" as="targetPoint"/>
                        <Array as="points">
                            <mxPoint x="240" y="479.5"/>
                            <mxPoint x="240" y="479.5"/>
                        </Array>
                    </mxGeometry>
                </mxCell>
                <mxCell id="15" value="一人で白黒交互に打つ" style="shape=note;whiteSpace=wrap;html=1;backgroundOutline=1;darkOpacity=0.05;fillColor=#fff2cc;strokeColor=#d6b656;" vertex="1" parent="1">
                    <mxGeometry x="70" y="340" width="130" height="50" as="geometry"/>
                </mxCell>
                <mxCell id="16" value="" style="endArrow=none;dashed=1;html=1;entryX=0.7;entryY=1.01;entryDx=0;entryDy=0;entryPerimeter=0;" edge="1" parent="1" source="4" target="15">
                    <mxGeometry width="50" height="50" relative="1" as="geometry">
                        <mxPoint x="350" y="610" as="sourcePoint"/>
                        <mxPoint x="400" y="560" as="targetPoint"/>
                    </mxGeometry>
                </mxCell>
                <mxCell id="17" value="Webアプリ" style="shape=note;whiteSpace=wrap;html=1;backgroundOutline=1;darkOpacity=0.05;fillColor=#fff2cc;strokeColor=#d6b656;" vertex="1" parent="1">
                    <mxGeometry x="490" y="340" width="100" height="50" as="geometry"/>
                </mxCell>
                <mxCell id="18" value="" style="endArrow=none;dashed=1;html=1;entryX=0.2;entryY=0.99;entryDx=0;entryDy=0;entryPerimeter=0;exitX=1;exitY=0;exitDx=0;exitDy=0;" edge="1" parent="1" source="3" target="17">
                    <mxGeometry width="50" height="50" relative="1" as="geometry">
                        <mxPoint x="350" y="610" as="sourcePoint"/>
                        <mxPoint x="400" y="560" as="targetPoint"/>
                    </mxGeometry>
                </mxCell>
            </root>
        </mxGraphModel>
    </diagram>
</mxfile>
